<?xml version="1.0" encoding="UTF-8" standalone="no"?>
<!-- Created with Inkscape (http://www.inkscape.org/) -->

<svg
   xmlns:dc="http://purl.org/dc/elements/1.1/"
   xmlns:cc="http://creativecommons.org/ns#"
   xmlns:rdf="http://www.w3.org/1999/02/22-rdf-syntax-ns#"
   xmlns:svg="http://www.w3.org/2000/svg"
   xmlns="http://www.w3.org/2000/svg"
   xmlns:sodipodi="http://sodipodi.sourceforge.net/DTD/sodipodi-0.dtd"
   xmlns:inkscape="http://www.inkscape.org/namespaces/inkscape"
   width="150"
   height="150"
   viewBox="0 0 39.687499 39.687501"
   version="1.1"
   id="svg997"
   inkscape:version="0.92.3 (3ce5693, 2018-03-11)"
   sodipodi:docname="no-paper.svg"
   inkscape:export-filename="/home/pedropaulo/Documents/jobs/layout-produtos-prodepa/src/img/no-paper.png"
   inkscape:export-xdpi="96"
   inkscape:export-ydpi="96">
  <defs
     id="defs991" />
  <sodipodi:namedview
     id="base"
     pagecolor="#ffffff"
     bordercolor="#666666"
     borderopacity="1.0"
     inkscape:pageopacity="0.0"
     inkscape:pageshadow="2"
     inkscape:zoom="2.8"
     inkscape:cx="46.935155"
     inkscape:cy="73.664939"
     inkscape:document-units="px"
     inkscape:current-layer="layer1"
     showgrid="false"
     units="px"
     inkscape:snap-page="true"
     inkscape:window-width="1318"
     inkscape:window-height="713"
     inkscape:window-x="1415"
     inkscape:window-y="27"
     inkscape:window-maximized="1" />
  <metadata
     id="metadata994">
    <rdf:RDF>
      <cc:Work
         rdf:about="">
        <dc:format>image/svg+xml</dc:format>
        <dc:type
           rdf:resource="http://purl.org/dc/dcmitype/StillImage" />
        <dc:title />
      </cc:Work>
    </rdf:RDF>
  </metadata>
  <g
     inkscape:label="Layer 1"
     inkscape:groupmode="layer"
     id="layer1"
     transform="translate(0,-257.31248)">
    <path
       inkscape:connector-curvature="0"
       id="rect5470"
       d="m 12.354543,263.23253 c -0.798583,0 -1.46436,0.61435 -1.546934,1.39242 -0.724148,0.077 -1.306045,0.65986 -1.3833786,1.38389 -0.7782694,0.0826 -1.3929383,0.74914 -1.3929383,1.54771 v 22.29399 c 0,0.85353 0.7022064,1.55676 1.5557191,1.55676 H 24.477575 c 0.798104,0 1.46334,-0.61491 1.546418,-1.39268 0.724621,-0.0769 1.307359,-0.66011 1.384153,-1.38493 0.778055,-0.0826 1.39268,-0.74808 1.39268,-1.54668 v -1.80273 a 0.49614337,0.49614341 0 1 0 -0.992188,0 v 1.80273 c 0,0.32116 -0.24253,0.56353 -0.56353,0.56353 H 12.354543 c -0.321002,0 -0.563532,-0.24224 -0.563532,-0.56353 v -22.29502 c 0,-0.32129 0.242657,-0.56328 0.563532,-0.56328 h 11.58689 l 3.867205,3.86799 v 8.70024 a 0.49614337,0.49614341 0 1 0 0.992188,0 v -8.90514 a 0.49614337,0.49614341 0 0 0 -0.144694,-0.35063 l -4.159178,-4.16021 a 0.49614337,0.49614341 0 0 0 -0.350366,-0.14443 z m 11.131879,1.8681 a 0.49614337,0.49614341 0 0 0 -0.488343,0.50385 v 2.93548 a 0.49614337,0.49614341 0 0 0 0.496094,0.49609 h 2.935479 a 0.49614337,0.49614341 0 1 0 0,-0.99219 h -2.439385 v -2.43938 a 0.49614337,0.49614341 0 0 0 -0.503845,-0.50385 z M 10.798824,265.636 v 21.44701 c 0,0.85353 0.702206,1.55572 1.555719,1.55572 h 14.042554 c -0.06978,0.23144 -0.275803,0.39248 -0.535885,0.39248 H 10.970648 c -0.321002,0 -0.563532,-0.24301 -0.563532,-0.5643 v -22.29399 c 0,-0.26028 0.160643,-0.46693 0.391708,-0.53692 z m -1.3838953,1.38389 v 21.44702 c 0,0.85353 0.7022063,1.55649 1.5557193,1.55649 h 14.042554 c -0.07002,0.23102 -0.275838,0.39171 -0.535627,0.39171 H 9.5870112 c -0.3210016,0 -0.5635315,-0.24328 -0.5635315,-0.56457 v -22.29399 c 0,-0.26027 0.1604035,-0.46665 0.391449,-0.53666 z"
       style="color:#000000;font-style:normal;font-variant:normal;font-weight:normal;font-stretch:normal;font-size:medium;line-height:normal;font-family:sans-serif;font-variant-ligatures:normal;font-variant-position:normal;font-variant-caps:normal;font-variant-numeric:normal;font-variant-alternates:normal;font-feature-settings:normal;text-indent:0;text-align:start;text-decoration:none;text-decoration-line:none;text-decoration-style:solid;text-decoration-color:#000000;letter-spacing:normal;word-spacing:normal;text-transform:none;writing-mode:lr-tb;direction:ltr;text-orientation:mixed;dominant-baseline:auto;baseline-shift:baseline;text-anchor:start;white-space:normal;shape-padding:0;clip-rule:nonzero;display:inline;overflow:visible;visibility:visible;opacity:1;isolation:auto;mix-blend-mode:normal;color-interpolation:sRGB;color-interpolation-filters:linearRGB;solid-color:#000000;solid-opacity:1;vector-effect:none;fill:#626262;fill-opacity:1;fill-rule:nonzero;stroke:none;stroke-width:1.984375;stroke-linecap:round;stroke-linejoin:round;stroke-miterlimit:4;stroke-dasharray:none;stroke-dashoffset:0;stroke-opacity:1;color-rendering:auto;image-rendering:auto;shape-rendering:auto;text-rendering:auto;enable-background:accumulate;font-variant-east_asian:normal" />
    <path
       inkscape:connector-curvature="0"
       id="rect5622"
       d="m 25.059245,275.99173 c -0.395631,0 -0.794364,0.15426 -1.094708,0.45468 l -0.247713,0.24778 c -0.600576,0.60073 -0.600576,1.59009 0,2.19082 l 2.150256,2.15165 -2.150256,2.15165 c -0.600576,0.60073 -0.600576,1.58924 0,2.18997 l 0.247713,0.24863 c 0.600575,0.60073 1.589691,0.60073 2.190266,0 l 2.150256,-2.15165 2.151109,2.15165 c 0.600574,0.60074 1.589691,0.60074 2.190265,0 l 0.247714,-0.24863 c 0.600574,-0.60073 0.600574,-1.58924 0,-2.18997 l -2.150255,-2.15165 2.150255,-2.15165 c 0.600574,-0.60074 0.600574,-1.59009 0,-2.19082 l -0.247714,-0.24778 c -0.600574,-0.60074 -1.589691,-0.60074 -2.190265,0 l -2.151109,2.15165 -2.150256,-2.15165 c -0.300344,-0.30042 -0.699928,-0.45468 -1.095558,-0.45468 z m 6.49248,0.98855 c 0.140746,0 0.281239,0.0557 0.393281,0.16773 l 0.247709,0.24778 c 0.224083,0.22414 0.224083,0.56347 0,0.78761 l -2.50097,2.50246 a 0.49608046,0.49620632 0 0 0 0,0.7016 l 2.50097,2.50246 c 0.224083,0.22414 0.224083,0.56262 0,0.78675 l -0.247709,0.24863 c -0.224083,0.22414 -0.563332,0.22414 -0.787411,0 l -2.500969,-2.50246 a 0.49608046,0.49620632 0 0 0 -0.702281,0 l -2.500972,2.50246 c -0.224081,0.22414 -0.563325,0.22414 -0.787406,0 l -0.247713,-0.24863 c -0.224081,-0.22414 -0.224081,-0.56261 0,-0.78675 l 2.500971,-2.50246 a 0.49608046,0.49620632 0 0 0 0,-0.7016 l -2.500971,-2.50246 c -0.224081,-0.22414 -0.224081,-0.56347 0,-0.78761 l 0.247713,-0.24778 c 0.111983,-0.11201 0.250798,-0.16348 0.393278,-0.16348 0.142479,0 0.282143,0.0515 0.394128,0.16348 l 2.500972,2.50246 a 0.49608046,0.49620632 0 0 0 0.702281,0 l 2.500969,-2.50246 c 0.112042,-0.11207 0.253389,-0.16773 0.39413,-0.16773 z"
       style="color:#000000;font-style:normal;font-variant:normal;font-weight:normal;font-stretch:normal;font-size:medium;line-height:normal;font-family:sans-serif;font-variant-ligatures:normal;font-variant-position:normal;font-variant-caps:normal;font-variant-numeric:normal;font-variant-alternates:normal;font-feature-settings:normal;text-indent:0;text-align:start;text-decoration:none;text-decoration-line:none;text-decoration-style:solid;text-decoration-color:#000000;letter-spacing:normal;word-spacing:normal;text-transform:none;writing-mode:lr-tb;direction:ltr;text-orientation:mixed;dominant-baseline:auto;baseline-shift:baseline;text-anchor:start;white-space:normal;shape-padding:0;clip-rule:nonzero;display:inline;overflow:visible;visibility:visible;opacity:1;isolation:auto;mix-blend-mode:normal;color-interpolation:sRGB;color-interpolation-filters:linearRGB;solid-color:#000000;solid-opacity:1;vector-effect:none;fill:#f53a5c;fill-opacity:1;fill-rule:nonzero;stroke:none;stroke-width:0.40214923;stroke-linecap:butt;stroke-linejoin:miter;stroke-miterlimit:4;stroke-dasharray:none;stroke-dashoffset:0;stroke-opacity:1;color-rendering:auto;image-rendering:auto;shape-rendering:auto;text-rendering:auto;enable-background:accumulate;font-variant-east_asian:normal" />
  </g>
</svg>
